<svg width="772" height="142" viewBox="0 0 772 142" fill="none" xmlns="http://www.w3.org/2000/svg">
<path d="M39.45 111.223C31.6007 111.223 24.669 109.542 18.6546 106.178C12.7422 102.814 8.15503 98.0735 4.89302 91.9572C1.63101 85.739 0 78.6034 0 70.5503V42.4154C0 34.3623 1.63101 27.2776 4.89302 21.1614C8.25697 14.9431 12.9461 10.1521 18.9604 6.78811C25.0767 3.42416 32.1104 1.74219 40.0616 1.74219H56.2697C63.9151 1.74219 70.643 3.37319 76.4534 6.6352C82.2639 9.89721 86.7491 14.4844 89.9092 20.3968C93.1712 26.2073 94.8022 32.9861 94.8022 40.7334H74.0069C74.0069 34.6172 72.3759 29.7241 69.1139 26.0544C65.8519 22.2827 61.5705 20.3968 56.2697 20.3968H40.0616C34.3531 20.3968 29.7659 22.5375 26.3 26.8189C22.8341 30.9984 21.1011 36.503 21.1011 43.3328V69.6328C21.1011 76.4627 22.7831 82.0183 26.1471 86.2997C29.511 90.4791 33.9453 92.5688 39.45 92.5688H55.9639C61.3666 92.5688 65.7499 90.4791 69.1139 86.2997C72.5798 82.1202 74.3127 76.6156 74.3127 69.7857H95.1081C95.1081 78.0427 93.4771 85.3313 90.215 91.6514C86.953 97.8696 82.3658 102.712 76.4534 106.178C70.541 109.542 63.7112 111.223 55.9639 111.223H39.45Z" fill="#EFEFEF"/>
<path d="M137.23 111.223C130.808 111.223 125.1 110 120.105 107.554C115.212 105.005 111.389 101.437 108.637 96.8502C105.986 92.263 104.661 86.9623 104.661 80.9479V63.0578C104.661 57.0435 106.037 51.7427 108.79 47.1555C111.542 42.4664 115.365 38.8476 120.258 36.2991C125.253 33.7507 130.961 32.4765 137.383 32.4765H151.145C157.567 32.4765 163.224 33.7507 168.117 36.2991C173.112 38.8476 176.986 42.4664 179.738 47.1555C182.491 51.7427 183.867 57.0435 183.867 63.0578V80.9479C183.867 86.9623 182.491 92.263 179.738 96.8502C176.986 101.437 173.112 105.005 168.117 107.554C163.224 110 157.516 111.223 150.992 111.223H137.23ZM150.686 93.3334C154.458 93.3334 157.465 92.0592 159.708 89.5107C161.95 86.8603 163.072 83.4454 163.072 79.266V64.434C163.072 60.2545 161.95 56.8906 159.708 54.3421C157.465 51.6917 154.509 50.3666 150.839 50.3666H137.689C134.019 50.3666 131.063 51.6917 128.82 54.3421C126.578 56.8906 125.456 60.2545 125.456 64.434V79.266C125.456 83.4454 126.578 86.8603 128.82 89.5107C131.063 92.0592 133.968 93.3334 137.536 93.3334H150.686Z" fill="#EFEFEF"/>
<path d="M225.725 111.223C216.653 111.223 209.313 108.471 203.707 102.967C198.202 97.4619 195.45 90.2243 195.45 81.2537V63.8224C195.45 57.6041 196.775 52.1505 199.425 47.4613C202.076 42.6702 205.796 39.0005 210.587 36.452C215.378 33.8017 220.934 32.4765 227.254 32.4765H235.664C238.62 32.4765 241.627 33.1391 244.686 34.4642C247.744 35.6875 250.292 37.3695 252.331 39.5102V2.96544H273.126V110H253.86V99.9084C251.821 103.272 249.069 106.025 245.603 108.165C242.137 110.204 238.518 111.223 234.747 111.223H225.725ZM237.04 93.3334C241.22 93.3334 244.686 91.8553 247.438 88.8991C250.292 85.8409 251.923 81.8144 252.331 76.8194V63.5165C251.617 59.541 250.037 56.3809 247.591 54.0363C245.246 51.5898 242.443 50.3666 239.181 50.3666H229.854C225.776 50.3666 222.463 51.7427 219.915 54.495C217.468 57.2474 216.245 60.8662 216.245 65.3514V79.7247C216.245 83.8022 217.366 87.1152 219.609 89.6636C221.851 92.1101 224.757 93.3334 228.325 93.3334H237.04Z" fill="#EFEFEF"/>
<path d="M314.949 111.223C306.997 111.223 300.575 109.236 295.682 105.26C290.789 101.285 288.343 96.0347 288.343 89.5107V83.8532C288.343 77.4311 290.891 72.2832 295.988 68.4096C301.085 64.434 307.813 62.4462 316.172 62.4462H325.499C328.15 62.4462 331.004 62.803 334.062 63.5165C337.12 64.2301 339.923 65.1985 342.472 66.4218V58.4706C342.472 55.9222 341.605 53.8834 339.872 52.3543C338.241 50.7233 336.05 49.9078 333.297 49.9078H320.147C317.293 49.9078 315 50.5704 313.267 51.8956C311.534 53.2208 310.667 55.0047 310.667 57.2474H290.484C290.484 49.8059 293.185 43.8425 298.588 39.3573C304.092 34.7701 311.279 32.4765 320.147 32.4765H333.297C342.268 32.4765 349.506 34.872 355.01 39.6631C360.515 44.3522 363.267 50.6214 363.267 58.4706V110H344.001V100.826C341.554 103.986 338.547 106.534 334.979 108.471C331.412 110.306 327.895 111.223 324.429 111.223H314.949ZM325.958 95.3212C329.73 95.3212 333.094 94.3528 336.05 92.4159C339.006 90.4791 341.147 87.8797 342.472 84.6177V82.0183C340.841 80.795 338.547 79.8266 335.591 79.113C332.737 78.3995 329.679 78.0427 326.417 78.0427H316.784C314.337 78.0427 312.349 78.6543 310.82 79.8776C309.291 81.1008 308.527 82.7318 308.527 84.7706V88.7462C308.527 90.683 309.342 92.263 310.973 93.4863C312.706 94.7095 314.949 95.3212 317.701 95.3212H325.958Z" fill="#EFEFEF"/>
<path d="M497.849 141.04C489.592 141.04 482.762 138.696 477.36 134.007C472.059 129.419 469.103 123.354 468.491 115.811H488.981C489.184 118.053 490.102 119.837 491.733 121.162C493.364 122.59 495.403 123.303 497.849 123.303H510.387C513.548 123.303 516.096 121.978 518.033 119.328C520.072 116.779 521.091 113.415 521.091 109.236V99.2967C518.746 102.457 516.045 104.954 512.987 106.789C510.031 108.522 507.074 109.389 504.118 109.389H494.026C485.973 109.389 479.5 106.738 474.607 101.437C469.714 96.0347 467.268 88.8991 467.268 80.0305V33.6997H488.063V80.3363C488.063 83.7002 488.879 86.4526 490.51 88.5933C492.243 90.632 494.485 91.6514 497.237 91.6514H506.106C509.47 91.6514 512.528 90.2752 515.281 87.5229C518.033 84.6687 519.97 80.9479 521.091 76.3607V33.6997H541.886V109.236C541.886 115.556 540.561 121.111 537.911 125.903C535.362 130.694 531.693 134.414 526.901 137.065C522.11 139.715 516.606 141.04 510.387 141.04H497.849Z" fill="#EFEFEF"/>
<path d="M592.905 110C583.934 110 577.359 107.961 573.18 103.884C569 99.8064 566.91 93.4863 566.91 84.9235V51.4369H553.455V33.6997H567.522V10.6108H587.706V33.6997H607.584V51.4369H587.706V84.0061C587.706 86.8603 588.215 88.95 589.235 90.2752C590.356 91.6004 592.089 92.263 594.434 92.263H607.584V110H592.905Z" fill="#EFEFEF"/>
<path d="M649.561 111.223C643.139 111.223 637.431 110.051 632.436 107.707C627.543 105.26 623.72 101.896 620.968 97.6148C618.215 93.2314 616.839 88.2365 616.839 82.6299V62.9049C616.839 56.8906 618.215 51.5898 620.968 47.0026C623.72 42.4154 627.543 38.8476 632.436 36.2991C637.431 33.7507 643.139 32.4765 649.561 32.4765H661.794C671.58 32.4765 679.429 35.2288 685.342 40.7334C691.254 46.2381 694.21 53.5776 694.21 62.752V78.9601H637.635V82.6299C637.635 85.9939 638.705 88.6952 640.846 90.734C642.986 92.7727 645.892 93.7921 649.561 93.7921H661.488C665.056 93.7921 667.91 93.0276 670.051 91.4985C672.294 89.8675 673.415 87.7778 673.415 85.2293H693.904C693.904 90.3262 692.528 94.8624 689.776 98.838C687.024 102.814 683.15 105.872 678.155 108.012C673.262 110.153 667.604 111.223 661.182 111.223H649.561ZM673.721 63.9753V62.752C673.721 58.7764 672.65 55.6164 670.51 53.2718C668.369 50.8253 665.515 49.602 661.947 49.602H649.561C645.892 49.602 642.935 50.8762 640.693 53.4247C638.45 55.9731 637.329 59.3371 637.329 63.5165V63.9753H673.721Z" fill="#EFEFEF"/>
<path d="M700.09 99.6026L741.375 51.284H701.925V33.6997H771.039V44.0974L729.754 92.4159H770.274V110H700.09V99.6026Z" fill="#EFEFEF"/>
<path d="M375.265 37.0141V15.0195H388.138V25.2122H416.572C416.572 25.2122 434.273 24.1392 446.075 36.4777C457.877 48.8161 462.774 64.1229 457.341 81.0033C451.525 99.0718 434.81 109.417 418.716 109.972C402.622 110.527 386.771 102.501 379.019 86.3679C375.849 79.7724 374.822 74.9088 374.727 67.592C374.567 55.2536 380.63 45.0609 380.63 45.0609H405.307L397.797 56.8629H388.14C388.14 56.8629 386.937 56.8629 385.992 68.6649C385.048 80.4669 397.794 98.1699 416.57 98.1699C435.346 98.1699 448.221 85.295 448.221 66.5191C448.221 47.7432 429.447 37.0141 420.864 37.0141H375.265Z" fill="#B96400" stroke="#B96400" stroke-width="1.07291"/>
<path d="M437.485 60.1172H426.504C426.355 58.9703 426.05 57.9352 425.588 57.0118C425.126 56.0884 424.515 55.299 423.756 54.6437C422.996 53.9883 422.095 53.4894 421.053 53.1468C420.025 52.7894 418.886 52.6106 417.634 52.6106C415.415 52.6106 413.501 53.1543 411.893 54.2415C410.299 55.3288 409.071 56.9001 408.207 58.9554C407.358 61.0108 406.933 63.4981 406.933 66.4173C406.933 69.4556 407.365 72.0025 408.229 74.0578C409.108 76.0983 410.336 77.6398 411.915 78.6824C413.509 79.7101 415.393 80.2239 417.567 80.2239C418.789 80.2239 419.898 80.0675 420.896 79.7547C421.909 79.442 422.795 78.9877 423.555 78.3919C424.329 77.7813 424.962 77.0441 425.454 76.1802C425.96 75.3015 426.31 74.311 426.504 73.2089L437.485 60.1172ZM437.485 60.1172C437.486 60.1233 437.486 60.1294 437.487 60.1355L437.674 60.1172M437.485 60.1172H437.674M437.674 60.1172V59.9289H437.655L437.674 60.1172ZM437.674 60.3054H437.882L437.862 60.0988C437.591 57.3377 436.893 54.8785 435.763 52.7243C434.635 50.5731 433.167 48.7583 431.359 47.2821C429.551 45.79 427.896 44.8733 425.156 44.8727C423.501 44.8723 421.88 44.8726 420.23 44.8728C419.206 44.8729 418.17 44.8731 417.109 44.8731C415.752 44.8731 414.073 44.8732 412.29 44.8734C408.734 44.8737 404.761 44.8741 402.089 44.8733L402.04 44.8733L401.997 44.897C401.149 45.3674 400.611 45.9353 400.256 46.582C399.903 47.2244 399.737 47.9344 399.617 48.6775C399.572 48.9554 399.533 49.2381 399.493 49.5251C399.319 50.7854 399.134 52.13 398.368 53.5254C396.428 57.0595 395.463 61.3596 395.463 66.4173C395.463 71.4597 396.413 75.7519 398.323 79.2857C400.23 82.815 402.831 85.5079 406.126 87.3584L406.127 87.3589C409.434 89.193 413.175 90.1081 417.344 90.1081C420.506 90.1081 423.315 89.6286 425.768 88.6652C428.231 87.7043 430.322 86.4111 432.04 84.7841L432.04 84.7835C433.753 83.146 435.099 81.3339 436.078 79.3469C437.07 77.362 437.666 75.3441 437.862 73.2938L437.881 73.0889L437.675 73.0876L426.505 73.0206L426.346 73.0197L426.318 73.1763C426.128 74.2591 425.785 75.2283 425.291 76.0862L425.29 76.0871C424.811 76.93 424.193 77.6486 423.438 78.2441C422.699 78.8242 421.833 79.2683 420.841 79.5749L420.84 79.5751C419.863 79.8813 418.773 80.0356 417.567 80.0356C415.424 80.0356 413.577 79.5296 412.018 78.5247C410.476 77.5057 409.269 75.996 408.402 73.984C407.551 71.9587 407.121 69.4387 407.121 66.4173C407.121 63.5156 407.544 61.0544 408.38 59.0278C409.232 57.001 410.44 55.4609 411.999 54.3972C413.572 53.3341 415.448 52.7989 417.634 52.7989C418.868 52.7989 419.986 52.9751 420.991 53.3246L420.991 53.3247L420.994 53.3257C422.015 53.6612 422.894 54.1486 423.633 54.7862C424.373 55.4248 424.969 56.1942 425.419 57.096C425.871 57.9985 426.171 59.013 426.317 60.1414L426.338 60.3054H426.504H437.674Z" fill="#B96400" stroke="#B96400" stroke-width="0.376524"/>
<circle cx="381.698" cy="9.11971" r="5.90909" stroke="#B96400" stroke-width="6.42125"/>
</svg>
